<svg width="12" height="12" viewBox="0 0 12 12" fill="none" xmlns="http://www.w3.org/2000/svg">
<path d="M2.89111 2.09096C3.21504 1.8416 3.377 1.71691 3.56394 1.63662C3.6487 1.60021 3.73684 1.57079 3.82729 1.5487C4.0268 1.5 4.23835 1.5 4.66145 1.5H7.33855C7.76165 1.5 7.9732 1.5 8.17271 1.5487C8.26316 1.57079 8.3513 1.60021 8.43606 1.63662C8.623 1.71691 8.78496 1.8416 9.10889 2.09096C10.1822 2.91724 10.7189 3.33038 10.9028 3.86539C10.9847 4.10337 11.0153 4.35364 10.9929 4.6023C10.9426 5.16134 10.519 5.67298 9.67164 6.69625L7.67491 9.10764C6.90629 10.0359 6.52198 10.5 6 10.5C5.47802 10.5 5.09371 10.0359 4.32509 9.10764L2.32835 6.69625C1.48104 5.67298 1.05738 5.16134 1.0071 4.6023C0.984736 4.35364 1.01532 4.10337 1.09715 3.86539C1.28112 3.33038 1.81779 2.91724 2.89111 2.09096Z" fill="#FFC0B0"/>
<path d="M5 4.25H7" stroke="#991F00" stroke-width="0.6" stroke-linecap="round" stroke-linejoin="round"/>
</svg>
