<svg width="132" height="22" viewBox="0 0 132 22" fill="none" xmlns="http://www.w3.org/2000/svg">
<path d="M-0.00193751 16.8V4.76837e-05H6.91006C7.96606 4.76837e-05 8.89406 0.216048 9.69406 0.648048C10.5101 1.06405 11.1421 1.65605 11.5901 2.42405C12.0541 3.19205 12.2861 4.10405 12.2861 5.16005V5.49605C12.2861 6.53605 12.0461 7.44805 11.5661 8.23205C11.1021 9.00005 10.4621 9.60005 9.64606 10.032C8.84606 10.448 7.93406 10.656 6.91006 10.656H3.16606V16.8H-0.00193751ZM3.16606 7.77605H6.59806C7.35006 7.77605 7.95806 7.56805 8.42206 7.15205C8.88606 6.73605 9.11806 6.16805 9.11806 5.44805V5.20805C9.11806 4.48805 8.88606 3.92005 8.42206 3.50405C7.95806 3.08805 7.35006 2.88005 6.59806 2.88005H3.16606V7.77605ZM14.5784 16.8V4.89605H17.5544V6.24005H17.9864C18.1624 5.76005 18.4504 5.40805 18.8504 5.18405C19.2664 4.96005 19.7464 4.84805 20.2904 4.84805H21.7304V7.53605H20.2424C19.4744 7.53605 18.8424 7.74405 18.3464 8.16005C17.8504 8.56005 17.6024 9.18405 17.6024 10.032V16.8H14.5784ZM29.3362 17.136C28.1522 17.136 27.0882 16.896 26.1442 16.416C25.2002 15.936 24.4562 15.24 23.9122 14.328C23.3682 13.416 23.0962 12.32 23.0962 11.04V10.656C23.0962 9.37605 23.3682 8.28005 23.9122 7.36805C24.4562 6.45605 25.2002 5.76005 26.1442 5.28005C27.0882 4.80005 28.1522 4.56005 29.3362 4.56005C30.5202 4.56005 31.5842 4.80005 32.5282 5.28005C33.4722 5.76005 34.2162 6.45605 34.7602 7.36805C35.3042 8.28005 35.5762 9.37605 35.5762 10.656V11.04C35.5762 12.32 35.3042 13.416 34.7602 14.328C34.2162 15.24 33.4722 15.936 32.5282 16.416C31.5842 16.896 30.5202 17.136 29.3362 17.136ZM29.3362 14.448C30.2642 14.448 31.0322 14.152 31.6402 13.56C32.2482 12.952 32.5522 12.088 32.5522 10.968V10.728C32.5522 9.60805 32.2482 8.75205 31.6402 8.16005C31.0482 7.55205 30.2802 7.24805 29.3362 7.24805C28.4082 7.24805 27.6402 7.55205 27.0322 8.16005C26.4242 8.75205 26.1202 9.60805 26.1202 10.728V10.968C26.1202 12.088 26.4242 12.952 27.0322 13.56C27.6402 14.152 28.4082 14.448 29.3362 14.448ZM38.3675 16.8V4.89605H41.3435V6.19205H41.7755C41.9835 5.79205 42.3275 5.44805 42.8075 5.16005C43.2875 4.85605 43.9195 4.70405 44.7035 4.70405C45.5515 4.70405 46.2315 4.87205 46.7435 5.20805C47.2555 5.52805 47.6475 5.95205 47.9195 6.48005H48.3515C48.6235 5.96805 49.0075 5.54405 49.5035 5.20805C49.9995 4.87205 50.7035 4.70405 51.6155 4.70405C52.3515 4.70405 53.0155 4.86405 53.6075 5.18405C54.2155 5.48805 54.6955 5.96005 55.0475 6.60005C55.4155 7.22405 55.5995 8.01605 55.5995 8.97605V16.8H52.5755V9.19205C52.5755 8.53605 52.4075 8.04805 52.0715 7.72805C51.7355 7.39205 51.2635 7.22405 50.6555 7.22405C49.9675 7.22405 49.4315 7.44805 49.0475 7.89605C48.6795 8.32805 48.4955 8.95205 48.4955 9.76805V16.8H45.4715V9.19205C45.4715 8.53605 45.3035 8.04805 44.9675 7.72805C44.6315 7.39205 44.1595 7.22405 43.5515 7.22405C42.8635 7.22405 42.3275 7.44805 41.9435 7.89605C41.5755 8.32805 41.3915 8.95205 41.3915 9.76805V16.8H38.3675ZM58.8519 21.6V4.89605H61.8279V6.33605H62.2599C62.5319 5.87205 62.9559 5.46405 63.5319 5.11205C64.1079 4.74405 64.9319 4.56005 66.0039 4.56005C66.9639 4.56005 67.8519 4.80005 68.6679 5.28005C69.4839 5.74405 70.1399 6.43205 70.6359 7.34405C71.1319 8.25605 71.3799 9.36005 71.3799 10.656V11.04C71.3799 12.336 71.1319 13.44 70.6359 14.352C70.1399 15.264 69.4839 15.96 68.6679 16.44C67.8519 16.904 66.9639 17.136 66.0039 17.136C65.2839 17.136 64.6759 17.048 64.1799 16.872C63.6999 16.712 63.3079 16.504 63.0039 16.248C62.7159 15.976 62.4839 15.704 62.3079 15.432H61.8759V21.6H58.8519ZM65.0919 14.496C66.0359 14.496 66.8119 14.2 67.4199 13.608C68.0439 13 68.3559 12.12 68.3559 10.968V10.728C68.3559 9.57605 68.0439 8.70405 67.4199 8.11205C66.7959 7.50405 66.0199 7.20005 65.0919 7.20005C64.1639 7.20005 63.3879 7.50405 62.7639 8.11205C62.1399 8.70405 61.8279 9.57605 61.8279 10.728V10.968C61.8279 12.12 62.1399 13 62.7639 13.608C63.3879 14.2 64.1639 14.496 65.0919 14.496ZM78.3181 16.8C77.5341 16.8 76.8941 16.56 76.3981 16.08C75.9181 15.584 75.6781 14.928 75.6781 14.112V7.39205H72.7021V4.89605H75.6781V1.20005H78.7021V4.89605H81.9661V7.39205H78.7021V13.584C78.7021 14.064 78.9261 14.304 79.3741 14.304H81.6781V16.8H78.3181ZM84.7034 16.8V4.76837e-05H87.7274V16.8H84.7034ZM96.7424 17.136C95.5584 17.136 94.4944 16.896 93.5504 16.416C92.6064 15.936 91.8624 15.24 91.3184 14.328C90.7744 13.416 90.5024 12.32 90.5024 11.04V10.656C90.5024 9.37605 90.7744 8.28005 91.3184 7.36805C91.8624 6.45605 92.6064 5.76005 93.5504 5.28005C94.4944 4.80005 95.5584 4.56005 96.7424 4.56005C97.9264 4.56005 98.9904 4.80005 99.9344 5.28005C100.878 5.76005 101.622 6.45605 102.166 7.36805C102.71 8.28005 102.982 9.37605 102.982 10.656V11.04C102.982 12.32 102.71 13.416 102.166 14.328C101.622 15.24 100.878 15.936 99.9344 16.416C98.9904 16.896 97.9264 17.136 96.7424 17.136ZM96.7424 14.448C97.6704 14.448 98.4384 14.152 99.0464 13.56C99.6544 12.952 99.9584 12.088 99.9584 10.968V10.728C99.9584 9.60805 99.6544 8.75205 99.0464 8.16005C98.4544 7.55205 97.6864 7.24805 96.7424 7.24805C95.8144 7.24805 95.0464 7.55205 94.4384 8.16005C93.8304 8.75205 93.5264 9.60805 93.5264 10.728V10.968C93.5264 12.088 93.8304 12.952 94.4384 13.56C95.0464 14.152 95.8144 14.448 96.7424 14.448ZM111.438 17.136C110.254 17.136 109.19 16.896 108.246 16.416C107.302 15.936 106.558 15.24 106.014 14.328C105.47 13.416 105.198 12.32 105.198 11.04V10.656C105.198 9.37605 105.47 8.28005 106.014 7.36805C106.558 6.45605 107.302 5.76005 108.246 5.28005C109.19 4.80005 110.254 4.56005 111.438 4.56005C112.622 4.56005 113.686 4.80005 114.63 5.28005C115.574 5.76005 116.318 6.45605 116.862 7.36805C117.406 8.28005 117.678 9.37605 117.678 10.656V11.04C117.678 12.32 117.406 13.416 116.862 14.328C116.318 15.24 115.574 15.936 114.63 16.416C113.686 16.896 112.622 17.136 111.438 17.136ZM111.438 14.448C112.366 14.448 113.134 14.152 113.742 13.56C114.35 12.952 114.654 12.088 114.654 10.968V10.728C114.654 9.60805 114.35 8.75205 113.742 8.16005C113.15 7.55205 112.382 7.24805 111.438 7.24805C110.51 7.24805 109.742 7.55205 109.134 8.16005C108.526 8.75205 108.222 9.60805 108.222 10.728V10.968C108.222 12.088 108.526 12.952 109.134 13.56C109.742 14.152 110.51 14.448 111.438 14.448ZM120.469 16.8V4.76837e-05H123.493V9.28805H123.925L127.861 4.89605H131.797L126.301 10.656L131.989 16.8H128.101L123.925 12.072H123.493V16.8H120.469Z" fill="#FF3400"/>
</svg>
