<svg width="18" height="18" viewBox="0 0 18 18" fill="none" xmlns="http://www.w3.org/2000/svg">
    <path
        d="M7.3125 2.25H4.3125C3.78916 2.25 3.5275 2.25 3.31457 2.31459C2.83517 2.46001 2.46001 2.83517 2.31459 3.31457C2.25 3.5275 2.25 3.78916 2.25 4.3125C2.25 4.83584 2.25 5.0975 2.31459 5.31043C2.46001 5.78983 2.83517 6.16499 3.31457 6.31041C3.5275 6.375 3.78916 6.375 4.3125 6.375H7.3125C7.83584 6.375 8.0975 6.375 8.31043 6.31041C8.78983 6.16499 9.16499 5.78983 9.31041 5.31043C9.375 5.0975 9.375 4.83584 9.375 4.3125C9.375 3.78916 9.375 3.5275 9.31041 3.31457C9.16499 2.83517 8.78983 2.46001 8.31043 2.31459C8.0975 2.25 7.83584 2.25 7.3125 2.25Z"
        stroke="#fff" stroke-linejoin="round" />
    <path
        d="M15.75 7.3125V4.3125C15.75 3.78916 15.75 3.5275 15.6854 3.31457C15.54 2.83517 15.1648 2.46001 14.6854 2.31459C14.4725 2.25 14.2108 2.25 13.6875 2.25C13.1642 2.25 12.9025 2.25 12.6896 2.31459C12.2102 2.46001 11.835 2.83517 11.6896 3.31457C11.625 3.5275 11.625 3.78916 11.625 4.3125V7.3125C11.625 7.83584 11.625 8.0975 11.6896 8.31043C11.835 8.78983 12.2102 9.16499 12.6896 9.31041C12.9025 9.375 13.1642 9.375 13.6875 9.375C14.2108 9.375 14.4725 9.375 14.6854 9.31041C15.1648 9.16499 15.54 8.78983 15.6854 8.31043C15.75 8.0975 15.75 7.83584 15.75 7.3125Z"
        stroke="#fff" stroke-linejoin="round" />
    <path
        d="M12.6896 15.6854C12.9025 15.75 13.1642 15.75 13.6875 15.75C14.2108 15.75 14.4725 15.75 14.6854 15.6854C15.1648 15.54 15.54 15.1648 15.6854 14.6854C15.75 14.4725 15.75 14.2108 15.75 13.6875C15.75 13.1642 15.75 12.9025 15.6854 12.6896C15.54 12.2102 15.1648 11.835 14.6854 11.6896C14.4725 11.625 14.2108 11.625 13.6875 11.625C13.1642 11.625 12.9025 11.625 12.6896 11.6896C12.2102 11.835 11.835 12.2102 11.6896 12.6896C11.625 12.9025 11.625 13.1642 11.625 13.6875C11.625 14.2108 11.625 14.4725 11.6896 14.6854C11.835 15.1648 12.2102 15.54 12.6896 15.6854Z"
        stroke="#fff" stroke-linejoin="round" />
    <path
        d="M6.375 8.625H5.25C3.83579 8.625 3.12868 8.625 2.68934 9.06434C2.25 9.50368 2.25 10.2108 2.25 11.625V12.75C2.25 14.1642 2.25 14.8713 2.68934 15.3107C3.12868 15.75 3.83579 15.75 5.25 15.75H6.375C7.78921 15.75 8.49632 15.75 8.93566 15.3107C9.375 14.8713 9.375 14.1642 9.375 12.75V11.625C9.375 10.2108 9.375 9.50368 8.93566 9.06434C8.49632 8.625 7.78921 8.625 6.375 8.625Z"
        stroke="#fff" stroke-linejoin="round" />
</svg>