<svg width="15" height="15" viewBox="0 0 15 15" fill="none" xmlns="http://www.w3.org/2000/svg">
<path d="M6.6158 0.436188C6.83097 -0.145292 7.65341 -0.145291 7.86857 0.436189C8.68994 2.65589 9.10062 3.76574 9.91024 4.57536C10.7199 5.38498 11.8297 5.79566 14.0494 6.61702C14.6309 6.83219 14.6309 7.65463 14.0494 7.8698C11.8297 8.69116 10.7199 9.10184 9.91024 9.91146C9.10062 10.7211 8.68994 11.8309 7.86857 14.0506C7.65341 14.6321 6.83097 14.6321 6.6158 14.0506C5.79444 11.8309 5.38376 10.7211 4.57414 9.91146C3.76451 9.10184 2.65466 8.69116 0.434967 7.86979C-0.146513 7.65463 -0.146514 6.83219 0.434966 6.61702C2.65466 5.79566 3.76451 5.38498 4.57414 4.57536C5.38376 3.76573 5.79444 2.65589 6.6158 0.436188Z" fill="#FFEBE6"/>
</svg>
